#!OML:ASF E:\Steps\Project 1\Capture day 1\Session 2\Subject.ASF
:FULLY-SPECIFIED
:DEGREES
127
root 7.20016 16.2874 31.6021 -154.386 -0.918835 177.831
lowerback -28.3235 -1.40789 -7.44263
upperback -1.5331 -0.0701061 -0.535816
thorax 13.2614 -0.734822 3.37932
lowerneck -5.48607 -3.46712 -2.12512
upperneck 8.6538 -5.43561 7.1029
head 4.14297 -2.56359 2.47971
rclavicle -2.83268e-015 1.59028e-015
rhumerus -40.5804 -22.5099 -75.3775
rradius 31.4336
rwrist -0.98439
rhand -7.35381 -52.785
rfingers 7.12502
rthumb 18.5305 -81.9224
lclavicle -2.83268e-015 1.59028e-015
lhumerus -31.6939 11.6404 78.0569
lradius 20.5163
lwrist -5.31521
lhand -21.0709 -13.4307
lfingers 7.12502
lthumb 5.30586 16.4828
rfemur -22.5753 4.91869 21.1476
rtibia 5.70301
rfoot -18.5517 -6.58149
rtoes -28.4187
lfemur -24.4679 -9.9718 -19.7858
ltibia 9.92725
lfoot -8.61297 -0.669507
ltoes -29.013
128
root 7.20085 16.2852 31.6014 -154.374 -0.876788 177.759
lowerback -28.3778 -1.44846 -7.5142
upperback -1.49262 -0.0903245 -0.53438
thorax 13.3342 -0.750274 3.41145
lowerneck -5.63253 -3.45484 -2.01087
upperneck 9.0406 -5.44203 7.10428
head 3.87094 -2.53223 2.2047
rclavicle 6.70898e-015 2.50469e-014
rhumerus -40.5802 -22.1249 -75.5739
rradius 31.6503
rwrist -1.37603
rhand -7.04344 -52.8645
rfingers 7.12502
rthumb 18.829 -81.9732
lclavicle 6.70898e-015 2.50469e-014
lhumerus -31.686 11.5722 78.1506
lradius 20.6151
lwrist -5.08194
lhand -21.1163 -13.2727
lfingers 7.12502
lthumb 5.2621 16.642
rfemur -22.5475 5.27093 20.9716
rtibia 5.62082
rfoot -18.5389 -6.89355
rtoes -28.0458
lfemur -24.4781 -10.1409 -19.8408
ltibia 9.94796
lfoot -8.61514 -0.575545
ltoes -29.1641
129
root 7.20095 16.2818 31.6011 -154.341 -0.790191 177.698
lowerback -28.4631 -1.46601 -7.55915
upperback -1.45267 -0.0848815 -0.556991
thorax 13.4178 -0.753257 3.41215
lowerneck -5.70825 -3.37727 -2.02335
upperneck 8.66519 -5.29202 6.91697
head 4.17099 -2.48764 2.40253
rclavicle 1.13307e-014 -1.15295e-014
rhumerus -40.5218 -21.93 -75.731
rradius 31.7524
rwrist -1.54485
rhand -6.6692 -52.865
rfingers 7.12502
rthumb 19.1889 -81.9384
lclavicle 1.13307e-014 -1.15295e-014
lhumerus -31.6898 11.5124 78.1973
lradius 20.7268
lwrist -4.87877
lhand -21.1107 -13.1339
lfingers 7.12502
lthumb 5.26744 16.7806
rfemur -22.5966 5.39475 20.8408
rtibia 5.64019
rfoot -18.5623 -6.9249
rtoes -27.628
lfemur -24.4931 -10.3534 -19.886
ltibia 9.93699
lfoot -8.71326 -0.319977
ltoes -29.3516
130
root 7.20207 16.2802 31.6019 -154.311 -0.695299 177.693
lowerback -28.4975 -1.45247 -7.54918
upperback -1.45761 -0.0686883 -0.571817
thorax 13.426 -0.746473 3.39604
lowerneck -5.57639 -3.4013 -2.0404
upperneck 8.48576 -5.31298 6.96343
head 4.08446 -2.50122 2.42086
rclavicle -6.11263e-015 -4.37326e-015
rhumerus -40.5404 -21.8986 -75.7418
rradius 31.7941
rwrist -1.45366
rhand -6.42542 -52.557
rfingers 7.12502
rthumb 19.4234 -81.6069
lclavicle -6.11263e-015 -4.37326e-015
lhumerus -31.7473 11.5777 78.1614
lradius 20.7763
lwrist -4.84106
lhand -20.9009 -13.2782
lfingers 7.12502
lthumb 5.46999 16.6312
rfemur -22.6822 5.09237 20.8838
rtibia 5.71073
rfoot -18.6053 -6.597
rtoes -27.8154
lfemur -24.482 -10.4514 -19.8809
ltibia 9.86596
lfoot -8.75126 -0.136542
ltoes -29.8219
